<svg width="4001" height="8000" viewBox="0 0 4001 8000" fill="none" xmlns="http://www.w3.org/2000/svg">
<path d="M80.125 0H683.591H979.69C1211.5 0 1399.43 187.923 1399.43 419.738V490.574C1399.43 561.677 1383.97 631.93 1354.13 696.468L1180.52 1071.93C1082.01 1284.97 1123.34 1536.54 1284.83 1706.87L1589.14 2027.83C1732.18 2178.7 1672.15 2426.9 1475.97 2495.72C1243.11 2577.4 1215.32 2895.53 1430.5 3016.35L2724.58 3742.91C3059.42 3930.91 3067.87 4409.91 2739.86 4609.6C2486.1 4764.09 2154.42 4665.66 2026 4397.75L1677.82 3671.39C1609.92 3529.73 1466.76 3439.6 1309.67 3439.6C1217.37 3439.6 1127.8 3470.87 1055.56 3528.31L1022.96 3554.24C705.483 3806.7 883.998 4318 1289.61 4318H1338.78C1477.49 4318 1603.3 4399.37 1660.19 4525.88L1707.87 4631.92C1742.2 4708.25 1683.63 4793.87 1600.05 4789.55L1543.4 4786.62C1165.42 4767.1 863.944 5098.03 918.519 5472.56C939.378 5615.7 1100.58 5690.08 1223.02 5613.05L1452.59 5468.64C1839.47 5225.27 2244.27 5751.83 1909.62 6063.14L1132.42 6786.13C1119.25 6798.39 1107.22 6811.82 1096.48 6826.27C965.915 7002.05 1065.23 7253.81 1280.64 7293.1L1353.44 7306.38C1772.46 7382.81 1716.63 8000 1290.7 8000H18.2792C8.2529 8000 0.125 7991.87 0.125 7981.85V80C0.125 35.8172 35.9422 0 80.125 0Z" fill="#020C0D"/>
<path d="M3041.66 0H3947.58C3976.6 0 4000.12 23.5222 4000.12 52.5384V7920C4000.12 7964.18 3964.31 8000 3920.12 8000H2936.58C2815.77 8000 2699.42 7954.31 2610.89 7872.11C2415.22 7690.43 2406.04 7383.79 2590.47 7190.72L2697.22 7078.97C2794.7 6976.92 2832.16 6831.55 2796.13 6695.09L2545.01 5744.08C2500.35 5574.97 2712.89 5459.84 2830.15 5589.62C2922.92 5692.31 3093.17 5643.93 3118.09 5507.81L3332.69 4335.4C3360.01 4186.15 3341.68 4032.13 3280.09 3893.45L2851.83 2929.2C2713.47 2617.69 2716.25 2261.63 2859.44 1952.32L3059.59 1519.99C3178.17 1263.83 3100.9 959.613 2874.44 791.099L2798.37 734.491C2695.03 657.59 2634.12 536.357 2634.12 407.54C2634.12 182.462 2816.59 0 3041.66 0Z" fill="#020C0D"/>
</svg>
