<svg width="4000" height="12000" viewBox="0 0 4000 12000" fill="none" xmlns="http://www.w3.org/2000/svg">
<path d="M1418 6506.04L1265.49 6324H751.98H629.35H504.941H0V10046.2V12000H629.35L414.17 11749.6L509.747 11518.9L263.23 11268.6L334.783 10907.8L815.087 10011.6L853.27 10492L465.613 10850.7L1099.4 10537.1L1329.73 9394.31L1840 8883.69L1348.53 8571.93L1418 8061.36L1595.05 7780.78L1558.05 7150.07L1348.53 7759.1L1329.73 7150.07L1595.05 6991.69L1348.53 6684.79L1418 6506.04Z" fill="black"/>
<path d="M2768.55 6582.9L2734.8 6324H3248.19H3369.78H3495.18H4000V10046.2V12000H1468L1683.13 11749.6L1587.57 11518.9L3736.83 11268.6L2965.93 10605.5L2915.36 10118.7L2725.83 10157.4L2647.09 9950.52V10520.9L2281.51 10454.7L2485.73 10697L2035.43 10499.8L2879.89 9466.24L2504.53 9357.03L2332.48 8969.22L2160.43 8581.42L2485.73 8534.64L2670.58 8761.17L2826.34 8322.23L3185.1 7575.77L2808.32 7690.1L2582.33 8061.36L2405.32 7780.78L2670.58 7575.77L2516.71 7150.07H2670.58L2405.32 6991.69L2670.58 6777.4L2768.55 6582.9Z" fill="black"/>
<path d="M2098.8 11271.5L1845 11772L3505 11637.5L3221.53 11166.6L3112.92 11480.8L2853.29 11122L2521.08 11540.5L2098.8 11271.5Z" fill="black"/>
<path d="M1336.22 9807.91L1208.31 9500.38L1005.82 10330.3L1208.31 10243.6L1113.59 10162.1L1266.02 10088.5L1182.04 9864.53L1336.22 9807.91Z" fill="black"/>
<path d="M0 0H683.319H979.353H1399V473.117L1017.02 1126.28L1399 1705.85L876.961 2138.88L683.319 3105.49L1399 4384.88L812.768 5697.78L1399 6324H0V0Z" fill="url(#paint0_linear_54_334)"/>
<path d="M2633.75 0H3999.75V6324H2748.25L2254.75 5961.77L2853.75 5466.08L2369.25 4015.65L3056.75 4617.2L3374.25 3246.04L2633.75 1928.06L3262.75 854L2633.75 484V0Z" fill="url(#paint1_linear_54_334)"/>
<defs>
<linearGradient id="paint0_linear_54_334" x1="699.5" y1="6324" x2="699.5" y2="0" gradientUnits="userSpaceOnUse">
<stop/>
<stop offset="1" stop-color="#318383"/>
</linearGradient>
<linearGradient id="paint1_linear_54_334" x1="3127.25" y1="6324" x2="3127.25" y2="0" gradientUnits="userSpaceOnUse">
<stop/>
<stop offset="1" stop-color="#318383"/>
</linearGradient>
</defs>
</svg>
