<svg width="4000" height="8000" viewBox="0 0 4000 8000" fill="none" xmlns="http://www.w3.org/2000/svg">
<path fill-rule="evenodd" clip-rule="evenodd" d="M1418 256.571L1265.49 0H751.98H629.35H504.941H0V5246.27V8000H629.35L414.17 7647.1L509.747 7321.99L263.23 6969.09L334.783 6460.58L815.087 5197.5L853.27 5874.51L659.441 6127.34L562.527 6253.76L546.5 6275V6290L555.5 6305H570.5L584.448 6297.3L624.06 6269.68L782.508 6159.18L1099.4 5938.17L1153.87 5557.26L1208.31 5524.41L1165.91 5473.05L1181.6 5363.36L1266.02 5305.91L1216.46 5119.58L1239.19 4960.6L1336.22 4910.37L1275.7 4705.29L1329.73 4327.43L1840 3607.73L1348.53 3168.33L1418 2448.72L1595.05 2053.25L1576.55 1608.77L1567.3 1386.53V1334.5L1543 1319.5L1517.5 1328.5L1505.67 1378.89L1453.29 1593.49L1448 1616L1434.5 1634.5L1416 1644L1386 1649L1365 1638.5L1344.5 1624L1339.13 1593.49L1329.73 1164.29L1595.05 941.067L1348.53 508.51L1418 256.571ZM2768.55 364.899L2734.8 0H3248.19H3369.78H3495.18H4000V5246.27V8000H1468L1683.13 7647.1L1587.57 7321.99L1997.53 7254.67L2098.79 6972.97L2348.25 7197.09L2634.95 7150.01L2853.29 6762L3019.9 7086.8L3163.12 7063.29L3221.53 6824.92L3312.75 7038.72L3736.83 6969.09L2965.92 6034.55L2915.36 5348.46L2725.83 5403.01L2647.09 5111.37V5915.26L2281.51 5821.96L2485.73 6163.46L2035.43 5885.62L2879.89 4428.8L2504.53 4274.88L2332.48 3728.29L2246.45 3455L2203.44 3318.36L2181.93 3250.03L2186 3222L2195.5 3200L2215 3177L2241.75 3165.23L2323.08 3148.74L2404.41 3132.26L2445.07 3124.02L2464.5 3127.5L2482.5 3132.26L2495.5 3143L2508.84 3155.68L2531.94 3195.59L2578.15 3275.41L2585.5 3283.5L2603 3295.5L2621.5 3303L2639 3305.5L2658 3303L2679 3295.5L2696.5 3283.5L2714 3263L2748.46 3125.72L2826.34 2816.39L3185.1 1764.3L2808.31 1925.45L2582.33 2448.72L2405.32 2053.25L2670.58 1764.3L2516.71 1164.29H2670.58L2405.32 941.068L2670.58 639.037L2768.55 364.899Z" fill="black"/>
</svg>
