<svg width="4007" height="8002" viewBox="0 0 4007 8002" fill="none" xmlns="http://www.w3.org/2000/svg">
<path fill-rule="evenodd" clip-rule="evenodd" d="M3019 0L2861 32.5L2730.5 144.5L2658 256.5L2636.5 383.5V499L2677 588L2730.5 653L2779.5 715L2861 771.5L2935.5 833.5L3000.5 914L3059.5 1016.5L3097.5 1124.5L3119 1243L3108 1371.5L3076.5 1496L3033 1590L2980 1702.5L2935.5 1818.5L2861 1980.5L2805.5 2096.5L2756 2327.5V2605.5L2813.5 2831L3039 3343.5L3314 3970.5L3344.5 4102.5V4220.5L3333.5 4343L3235.5 4873.5L3115 5528L3066.5 5607.5L2967.5 5649L2868.5 5628.5L2787.5 5548.5L2705 5528L2626.5 5548.5L2562 5607.5L2533 5715.5L2551.5 5776L2809.5 6725.5V6836L2776.5 6965L2705.5 7075.5L2614 7171L2535 7260.5L2478.5 7381.5L2453.5 7525L2478.5 7669L2535 7783.5L2614 7879L2728.5 7954L2897 8002H4007V0H3019ZM3.5 13H1137L1402.5 268.5V615.5L1076 1269L1137 1555L1668 2116.5V2371.5L1525 2473.5L1321 2596L1270 2821L1402.5 3015L2832 3821.5L2975 4056V4321.5L2832 4566.5L2587 4679H2301L2137.5 4566.5L1994.5 4321.5L1852 4056L1729 3709L1525 3484.5L1218.5 3423L973.5 3586.5L841 3821.5L912.5 4138L1137 4321.5H1402.5L1617 4444L1729 4679L1661.5 4797L1501.5 4781L1301 4813.5L1116.5 4925.5L973.5 5112.5L910.5 5329L940 5540L1044.5 5633.5L1175.5 5647L1330.5 5556L1461 5462.5L1576 5409H1712.5L1867.5 5481.5L1974 5585.5L2027.5 5719V5858L1974 5991.5L1891.5 6080L1100.5 6814.5L1044.5 6916L1031 7026L1068.5 7148.5L1148.5 7239.5L1231.5 7285L1354.5 7314.5L1469 7341L1557.5 7410.5L1619 7523L1643 7653.5L1619 7787.5L1557.5 7889L1469 7985L1434.5 8001H0L3.5 13Z" fill="black"/>
</svg>
