<svg width="4000" height="8000" viewBox="0 0 4000 8000" fill="none" xmlns="http://www.w3.org/2000/svg">
<path d="M80.0001 0H683.319H979.353H1319C1363.18 0 1399 35.8172 1399 80V580.907C1399 592.5 1396.48 603.954 1391.62 614.477L1033.51 1389.09C1023.11 1411.59 1023.73 1437.65 1035.18 1459.63L1372.57 2107.2C1388.38 2137.55 1383.14 2174.59 1359.53 2199.35L896.117 2685.63C883.71 2698.65 876.051 2715.48 874.378 2733.38L700.126 4598.13C693.667 4667.25 772.275 4711.23 827.798 4669.56L2644.52 3306.16C2708.35 3258.26 2795.28 3323.09 2767.56 3397.93L1891.04 5764.55C1888.36 5771.78 1884.65 5778.59 1880.02 5784.76L848.526 7160.13C827.307 7188.43 827.183 7227.29 848.22 7255.72L1399 8000H80C35.8172 8000 0 7964.18 0 7920V80C0 35.8172 35.8173 0 80.0001 0Z" fill="#020C0D"/>
<path d="M2713.55 0H3920C3964.18 0 4000 35.8171 4000 79.9999V7920C4000 7964.18 3964.18 8000 3920 8000H2779.49C2759.3 8000 2739.86 7992.37 2725.07 7978.63L2313.91 7596.99C2281.19 7566.62 2279.66 7515.36 2310.5 7483.09L2771.53 7000.62C2810.75 6959.58 2879.06 6971.31 2902.33 7023.1L3036.34 7321.23C3067.93 7391.52 3170.87 7380.89 3187.44 7305.63L3376.47 6446.77C3388.82 6390.68 3339.78 6340.24 3283.36 6350.99L2805.73 6442.04C2764.46 6449.91 2724.13 6424.51 2713.4 6383.89L2671.87 6226.66L2611.29 5997.3L2453.06 5398.27C2431.64 5317.2 2533.53 5261.99 2589.76 5324.2L2947.87 5720.45C2992.35 5769.67 3073.97 5746.48 3085.92 5681.22L3371.64 4120.82C3373.39 4111.22 3373.38 4101.39 3371.6 4091.81L2988.83 2029.75C2973.48 1947.04 2857.24 1941.03 2833.44 2021.72L2640.54 2675.85C2635.98 2691.29 2626.87 2705.01 2614.4 2715.19L2145.41 3098.09C2098.16 3136.66 2026.85 3110.29 2016.07 3050.25L1756.62 1605.4C1749.43 1565.35 1773.44 1526.29 1812.41 1514.62L3110.09 1126.04C3173.13 1107.17 3187.69 1024.49 3134.89 985.216L2665.8 636.262C2645.51 621.167 2633.55 597.365 2633.55 572.074V80C2633.55 35.8172 2669.36 0 2713.55 0Z" fill="#020C0D"/>
</svg>
