<svg width="4000" height="8000" viewBox="0 0 4000 8000" fill="none" xmlns="http://www.w3.org/2000/svg">
<path fill-rule="evenodd" clip-rule="evenodd" d="M1288.74 39.1237L1400.59 227.28C1411.71 245.993 1414.73 268.432 1408.94 289.42L1357.36 476.491C1351.71 496.989 1354.45 518.893 1364.98 537.366L1562.04 883.154C1581.16 916.703 1573.59 959.121 1544.04 983.981L1359.05 1139.63C1340.51 1155.22 1330.04 1178.38 1330.57 1202.6L1339.03 1589C1340.49 1655.65 1435.59 1666.04 1451.39 1601.27L1514.46 1342.89C1521.6 1313.64 1564.44 1317.89 1565.7 1347.97L1594.27 2034.43C1594.78 2046.81 1592.41 2059.14 1587.35 2070.45L1423.35 2436.75C1419.8 2444.68 1417.57 2453.12 1416.74 2461.76L1352.42 3128C1349.98 3153.35 1359.75 3178.35 1378.73 3195.33L1786.73 3560.11C1817.08 3587.24 1822.21 3632.82 1798.67 3666.02L1340.92 4311.64C1333.57 4322.02 1328.79 4334 1326.99 4346.59L1275.7 4705.29L1330.91 4892.36C1334.01 4902.86 1331.42 4912.86 1324.7 4916.34L1239.19 4960.6L1216.46 5119.58L1261.78 5289.98C1264.31 5299.51 1262.18 5308.52 1256.48 5312.41L1181.6 5363.36L1165.91 5473.05L1188.71 5500.66C1198.36 5512.36 1198.63 5530.24 1189.24 5535.91L1153.87 5557.26L1104.32 5903.76C1101.19 5925.71 1089.08 5945.37 1070.89 5958.06L576.663 6302.73C556.984 6316.46 533.387 6291.77 547.984 6272.73L835.216 5898.06C846.864 5882.86 852.677 5864 851.599 5844.88L836.237 5572.5C831.375 5486.3 712.276 5467.87 681.588 5548.57L337.975 6452.18C335.854 6457.76 334.363 6463.56 333.531 6469.47L267.615 6937.92C264.797 6957.95 269.669 6978.3 281.251 6994.88L487.739 7290.48C501.65 7310.4 505.759 7335.55 498.908 7358.86L424.158 7613.12C417.797 7634.76 420.865 7658.08 432.606 7677.34L555.175 7878.35C587.681 7931.66 549.31 8000 486.871 8000H80.0001C35.8173 8000 0 7964.18 0 7920V5246.27V80.0001C0 35.8173 35.8172 0 80 0H504.941H629.35H751.98H1219.98C1248.2 0 1274.33 14.8667 1288.74 39.1237Z" fill="#020C0D"/>
<path fill-rule="evenodd" clip-rule="evenodd" d="M2742.88 87.3675L2766.92 347.275C2767.99 358.884 2766.52 370.588 2762.59 381.566L2675.72 624.649C2672.32 634.155 2667.16 642.932 2660.49 650.517L2459.24 879.676C2429.64 913.37 2433.52 964.803 2467.83 993.677L2582.39 1090.08C2612.4 1115.34 2594.54 1164.29 2555.32 1164.29C2535.76 1164.29 2521.44 1182.74 2526.3 1201.69L2667.07 1750.64C2669.26 1759.16 2666.99 1768.2 2661.04 1774.68L2440.9 2014.49C2419.31 2038.02 2413.77 2072.13 2426.81 2101.28L2526.58 2324.17C2547.92 2371.83 2615.73 2371.38 2636.43 2323.45L2795.67 1954.74C2803.79 1935.93 2818.81 1920.96 2837.65 1912.9L3019.95 1834.93C3083.63 1807.69 3149.48 1868.75 3127.13 1934.31L2826.34 2816.39L2718.68 3244C2701.15 3313.64 2607.85 3326.7 2571.87 3264.55L2514.53 3165.51C2497.32 3135.79 2463.06 3120.37 2429.4 3127.19L2247.53 3164.06C2200.97 3173.49 2172.85 3221.17 2187.11 3266.48L2332.48 3728.29L2493.27 4239.11C2500.4 4261.77 2517.24 4280.09 2539.23 4289.11L2795.04 4394.01C2839.91 4412.41 2858.22 4466.19 2833.9 4508.15L2074.46 5818.29C2052.74 5855.77 2064.8 5903.74 2101.67 5926.49L2412.54 6118.31C2431.25 6129.85 2452.88 6108.52 2441.59 6089.66L2381.12 5988.52C2344.47 5927.24 2400.37 5852.29 2469.56 5869.95L2598.44 5902.84C2623.1 5909.14 2647.09 5890.51 2647.09 5865.05V5377.56C2647.09 5336.32 2705.72 5328.55 2716.47 5368.36C2721.61 5387.41 2741.36 5398.54 2760.32 5393.09L2820.69 5375.71C2869.5 5361.66 2918.87 5396.06 2922.6 5446.71L2964.05 6009.16C2965.27 6025.68 2971.59 6041.41 2982.12 6054.19L3648.31 6861.78C3687.57 6909.38 3660.45 6981.63 3599.56 6991.63L3312.75 7038.72L3268.62 6935.28C3253.53 6899.92 3202.13 6904.12 3192.98 6941.46L3163.12 7063.29L3019.9 7086.8L2887.25 6828.21C2872.7 6799.84 2832.44 6799.06 2816.8 6826.85L2634.95 7150.01L2348.25 7197.09L2143.05 7012.73C2121.91 6993.75 2088.28 7002.22 2078.67 7028.95L1997.53 7254.67L1676.89 7307.32C1629.44 7315.11 1599.54 7362.69 1613.1 7408.82L1673.15 7613.13C1679.5 7634.76 1676.44 7658.08 1664.7 7677.33L1542.15 7878.36C1509.65 7931.67 1548.03 8000 1610.46 8000H3920C3964.18 8000 4000 7964.18 4000 7920V5246.27V80.0001C4000 35.8173 3964.18 0 3920 0H3495.18H3369.78H3248.19H2822.54C2775.45 0 2738.55 40.4753 2742.88 87.3675Z" fill="#020C0D"/>
</svg>
