<svg width="4000" height="8000" viewBox="0 0 4000 8000" fill="none" xmlns="http://www.w3.org/2000/svg">
<path fill-rule="evenodd" clip-rule="evenodd" d="M683.319 0H0V8000H699.5H1049.25H1219H1263L1310 7968.5L1322 7917L1314 7883.5L1245.5 7791.5L1105.88 7603.91L812.768 7207.81L1887 5775.46L2374.5 4459.2L2618.25 3801.08L2740.12 3472.01L2778 3367.5L2754 3310L2700.5 3286.5L2655.5 3298.5L2589.66 3347.33L2317.33 3551.71L1772.66 3960.47L683.319 4777.99L876.961 2705.74L1399 2157.94L1017.02 1424.77L1399 598.504V0H979.353H683.319ZM4000 0H2633.55V612.271L3262.75 1080.33L1744 1535.1L1892.05 2359.58L1966.07 2771.82L2003.09 2977.94L2018.5 3062.93L2036 3093L2063.5 3111L2098.5 3117.5L2138 3104.5L2188.46 3062.93L2336.82 2941.81L2633.55 2699.56L2780.72 2200.51L2845 1982.5L2881 1967.5L2918.5 1961.5L2946 1967.5L2983.69 2002.06L3039.49 2302.67L3151.09 2903.88L3374.29 4106.31L3056.69 5840.86L2712.82 5460.37L2626.86 5365.25L2583.87 5317.69L2554 5298.5L2522.5 5296L2496 5304L2477.5 5316L2462.56 5332.5L2451.5 5358L2448.78 5382.9L2462.56 5434.8L2490.12 5538.6L2611.29 5997.3L2671.87 6226.66L2732.45 6456.01L3067.5 6392.14L3402.55 6328.27L3269.01 6935.02L3235.62 7086.71L3202.23 7238.39L3185.54 7314.24L3178.5 7335.5L3143.5 7365L3109.5 7372L3079.5 7365L3046 7344.5L3029.77 7306.62L2994.54 7228.24L2924.08 7071.48L2906.46 7032.29L2889.5 7001.5L2866 6984.5L2840.5 6976H2809L2778.72 6993.1L2703.82 7071.48L2554.02 7228.24L2404.22 7385.01L2329.32 7463.39L2297.5 7498.5L2289 7519.5L2287 7537.5L2289 7554L2295 7575L2316.13 7599.05L2377.84 7656.33L2501.25 7770.88L2748.08 8000H4000V0Z" fill="black"/>
</svg>
