<svg width="4000" height="12000" viewBox="0 0 4000 12000" fill="none" xmlns="http://www.w3.org/2000/svg">
<path d="M4000 0H1585.18L1084.49 887.778H1523.59L1223.68 1661.08L1523.59 1534.12L1412.44 1888.03L1652.27 1738.57L1785.45 1271.68L2022.78 831.292L2556.01 506.373L2840.41 795.301L2911 661.835L3387.66 2006.5L3263.49 2305.42L3434.22 2279.93L3268.99 2434.39H3434.22L3268.99 2527.37L3356.62 3362.66L3480.79 3316.17L3268.99 3651.09H3434.22L3268.99 3847.04L3434.22 3795.55L2809.36 4506.87L2705.72 5089.73H3000.12L2577.04 5677.58L2287.65 5244.19L2168.98 5409.15L2048.82 5244.19L1757.42 5409.15L2048.82 5770.06L1839.03 6022.99L2096.38 6089.98L1839.03 6471.38L1714.36 6852.79L1942.17 6805.3L1714.36 7131.22L1424.96 6966.26L1493.05 7216.2L1377.39 7249.69L1839.03 7317.67L1662.79 7430.14L2048.82 7439.64L2623.11 7023.24L2473.4 6917.77L2623.11 6852.79L2428.84 6646.84L3771.19 6966.26L3501.31 7353.16L3310.05 7430.14L3041.68 7353.16L2964.08 7631.59H3041.68L3000.12 7697.08H3077.73L3000.12 7893.53L3341.09 7631.59L3119.29 8062.48L3222.43 8021.99L3077.73 8285.93L2428.84 8610.85L2659.66 8564.36L2177.99 9085.23L2079.36 9054.24L2123.42 9121.22L1554.14 9482.13L1330.33 9911.02L1475.03 9897.3L1223.68 10024.5L1528.1 10065.5L1185.13 10187L1454 10220.9L1309.3 10343.4L1412.44 10319.4L1377.39 10422.9L1279.76 10458.4L1412.44 10494.4L1475.03 10387.4L1708.35 10319.4L1743.9 10170.5L1821 10187L1839.03 9911.02L1913.63 9959.51L1942.17 9897.3H1991.74L2079.36 9729.07V9824.04L2269.12 9608.1L2428.84 9529.12L2818.38 8766.81H3908.37V9608.1H3771.19V10220.9H3547.38V11888.5H1988.23L1839.03 11272.7L1913.63 10876.3L2048.82 10656.8L2363.75 10170.5L2414.32 10458.4L2659.66 10220.9L2363.75 9788.55L2177.99 10091L1764.43 10580.9L1412.44 10811.8L1330.33 10739.8L977.344 11092.7L686.945 10876.3L645.387 11146.7L415.071 10656.8L686.945 10494.4L957.316 10656.8L686.945 10220.9L924.772 10278.4L645.387 9911.02L957.316 9985.5L848.667 9853.54L1424.96 9267.68L1377.39 9213.7L1554.14 9166.21L1493.05 9085.23L1839.03 8902.27V8766.81L1913.63 8807.3L1988.23 8610.85L2048.82 8726.32L2177.99 8387.4L2544 8252.44L2123.42 8170.96L2544 8021.99L2428.84 7893.53L1636.25 8062.48L1757.42 7893.53L849.668 8462.88L1109.02 8002L686.945 7893.53L924.772 7819.05L801.102 7697.08H1153.59L762.048 7439.64L849.668 7317.67L762.048 7216.2L849.668 6917.77L762.048 6805.3L924.772 6617.85L849.668 6355.91L1109.02 6443.39L949.806 6166.96V5692.58L646.389 6166.96L299.412 5617.6L646.389 4918.27L762.048 5205.7L1585.18 4430.39L1785.45 4704.82L2022.78 4554.86L2235.57 4704.82L2423.33 4130.47L2773.31 3731.07L2648.14 3606.1L2911 2557.86L2648.14 2732.32L2773.31 2145.96L2423.33 1271.68L2022.78 1534.12L1785.45 2382.9L2097.88 2557.86L1785.45 2907.27L2097.88 3606.1L1412.44 3882.03L1624.73 3682.58L1086.99 3557.61L949.806 3258.19L299.412 3795.05L646.389 2658.84L387.032 2421.89L462.135 1810.05L299.412 1085.73L462.135 986.253L387.032 574.356L646.389 0H0V12000H4000V661.835V0Z" fill="black"/>
</svg>
